<?xml version="1.0" standalone="no"?>
<!DOCTYPE svg PUBLIC "-//W3C//DTD SVG 20010904//EN"
 "http://www.w3.org/TR/2001/REC-SVG-20010904/DTD/svg10.dtd">
<svg version="1.0" xmlns="http://www.w3.org/2000/svg"
 width="260.000000pt" height="260.000000pt" viewBox="0 0 260.000000 260.000000"
 preserveAspectRatio="xMidYMid meet">
<metadata>
Created by potrace 1.14, written by Peter Selinger 2001-2017
</metadata>
<g transform="translate(0.000000,260.000000) scale(0.100000,-0.100000)"
fill="#000000" stroke="none">
<path d="M1505 2091 c-149 -40 -262 -98 -397 -208 l-78 -63 0 130 0 130 -395
0 -395 0 0 -75 0 -75 145 0 145 0 0 -835 0 -835 -145 0 -145 0 0 -75 0 -75
605 0 605 0 0 75 0 75 -210 0 -210 0 0 689 0 690 76 65 c42 36 107 83 145 106
63 37 205 100 227 100 6 0 8 -23 5 -57 -13 -149 82 -267 225 -280 112 -10 205
40 255 136 54 107 28 256 -56 327 -66 56 -123 74 -232 73 -64 0 -125 -7 -170
-18z"/>
</g>
</svg>
